<mxfile host="app.diagrams.net" agent="Mozilla/5.0 (Windows NT 10.0; Win64; x64) AppleWebKit/537.36 (KHTML, like Gecko) Chrome/134.0.0.0 Safari/537.36" version="26.1.0" pages="4">
  <diagram name="Argomenti" id="ECM6Urj_4PSq0B8ShMYm">
    <mxGraphModel dx="1728" dy="943" grid="1" gridSize="10" guides="1" tooltips="1" connect="1" arrows="1" fold="1" page="1" pageScale="1" pageWidth="1169" pageHeight="827" math="0" shadow="0">
      <root>
        <mxCell id="0" />
        <mxCell id="1" parent="0" />
        <mxCell id="vkAyM-PxPu1VIDmhXmFL-3" value="" style="edgeStyle=orthogonalEdgeStyle;rounded=0;orthogonalLoop=1;jettySize=auto;html=1;" edge="1" parent="1" source="vkAyM-PxPu1VIDmhXmFL-1" target="vkAyM-PxPu1VIDmhXmFL-2">
          <mxGeometry relative="1" as="geometry" />
        </mxCell>
        <mxCell id="vkAyM-PxPu1VIDmhXmFL-5" value="" style="edgeStyle=orthogonalEdgeStyle;rounded=0;orthogonalLoop=1;jettySize=auto;html=1;" edge="1" parent="1" source="vkAyM-PxPu1VIDmhXmFL-1" target="vkAyM-PxPu1VIDmhXmFL-4">
          <mxGeometry relative="1" as="geometry" />
        </mxCell>
        <mxCell id="vkAyM-PxPu1VIDmhXmFL-16" style="edgeStyle=orthogonalEdgeStyle;rounded=0;orthogonalLoop=1;jettySize=auto;html=1;exitX=0.75;exitY=1;exitDx=0;exitDy=0;dashed=1;startArrow=classic;startFill=1;" edge="1" parent="1" source="vkAyM-PxPu1VIDmhXmFL-1" target="vkAyM-PxPu1VIDmhXmFL-8">
          <mxGeometry relative="1" as="geometry">
            <Array as="points">
              <mxPoint x="185" y="240" />
              <mxPoint x="400" y="240" />
            </Array>
          </mxGeometry>
        </mxCell>
        <mxCell id="vkAyM-PxPu1VIDmhXmFL-1" value="Tipi" style="text;strokeColor=#006EAF;fillColor=#1ba1e2;html=1;fontSize=24;fontStyle=1;verticalAlign=middle;align=center;fontColor=#ffffff;" vertex="1" parent="1">
          <mxGeometry x="110" y="130" width="100" height="40" as="geometry" />
        </mxCell>
        <mxCell id="vkAyM-PxPu1VIDmhXmFL-22" value="" style="edgeStyle=orthogonalEdgeStyle;rounded=0;orthogonalLoop=1;jettySize=auto;html=1;" edge="1" parent="1" source="vkAyM-PxPu1VIDmhXmFL-2" target="vkAyM-PxPu1VIDmhXmFL-21">
          <mxGeometry relative="1" as="geometry" />
        </mxCell>
        <mxCell id="vkAyM-PxPu1VIDmhXmFL-2" value="Primitivi" style="text;strokeColor=#006EAF;fillColor=#1ba1e2;html=1;fontSize=24;fontStyle=1;verticalAlign=middle;align=center;fontColor=#ffffff;" vertex="1" parent="1">
          <mxGeometry x="290" y="130" width="130" height="40" as="geometry" />
        </mxCell>
        <mxCell id="vkAyM-PxPu1VIDmhXmFL-7" value="" style="edgeStyle=orthogonalEdgeStyle;rounded=0;orthogonalLoop=1;jettySize=auto;html=1;" edge="1" parent="1" source="vkAyM-PxPu1VIDmhXmFL-4" target="vkAyM-PxPu1VIDmhXmFL-6">
          <mxGeometry relative="1" as="geometry" />
        </mxCell>
        <mxCell id="vkAyM-PxPu1VIDmhXmFL-4" value="Riferimento" style="text;strokeColor=#006EAF;fillColor=#1ba1e2;html=1;fontSize=24;fontStyle=1;verticalAlign=middle;align=center;fontColor=#ffffff;" vertex="1" parent="1">
          <mxGeometry x="80" y="300" width="160" height="40" as="geometry" />
        </mxCell>
        <mxCell id="vkAyM-PxPu1VIDmhXmFL-9" value="" style="edgeStyle=orthogonalEdgeStyle;rounded=0;orthogonalLoop=1;jettySize=auto;html=1;" edge="1" parent="1" source="vkAyM-PxPu1VIDmhXmFL-6" target="vkAyM-PxPu1VIDmhXmFL-8">
          <mxGeometry relative="1" as="geometry" />
        </mxCell>
        <mxCell id="vkAyM-PxPu1VIDmhXmFL-18" value="" style="edgeStyle=orthogonalEdgeStyle;rounded=0;orthogonalLoop=1;jettySize=auto;html=1;" edge="1" parent="1" source="vkAyM-PxPu1VIDmhXmFL-6" target="vkAyM-PxPu1VIDmhXmFL-17">
          <mxGeometry relative="1" as="geometry" />
        </mxCell>
        <mxCell id="vkAyM-PxPu1VIDmhXmFL-6" value="Classi" style="text;strokeColor=#001DBC;fillColor=#0050ef;html=1;fontSize=24;fontStyle=1;verticalAlign=middle;align=center;fontColor=#ffffff;" vertex="1" parent="1">
          <mxGeometry x="95" y="410" width="130" height="40" as="geometry" />
        </mxCell>
        <mxCell id="vkAyM-PxPu1VIDmhXmFL-11" value="" style="edgeStyle=orthogonalEdgeStyle;rounded=0;orthogonalLoop=1;jettySize=auto;html=1;" edge="1" parent="1" source="vkAyM-PxPu1VIDmhXmFL-8" target="vkAyM-PxPu1VIDmhXmFL-10">
          <mxGeometry relative="1" as="geometry" />
        </mxCell>
        <mxCell id="vkAyM-PxPu1VIDmhXmFL-54" style="edgeStyle=orthogonalEdgeStyle;rounded=0;orthogonalLoop=1;jettySize=auto;html=1;exitX=0.25;exitY=0;exitDx=0;exitDy=0;entryX=1;entryY=0.5;entryDx=0;entryDy=0;startArrow=classic;startFill=1;dashed=1;" edge="1" parent="1" source="vkAyM-PxPu1VIDmhXmFL-8" target="vkAyM-PxPu1VIDmhXmFL-4">
          <mxGeometry relative="1" as="geometry" />
        </mxCell>
        <mxCell id="vkAyM-PxPu1VIDmhXmFL-8" value="ProprietÃ " style="text;strokeColor=#001DBC;fillColor=#0050ef;html=1;fontSize=24;fontStyle=1;verticalAlign=middle;align=center;fontColor=#ffffff;" vertex="1" parent="1">
          <mxGeometry x="305" y="410" width="130" height="40" as="geometry" />
        </mxCell>
        <mxCell id="vkAyM-PxPu1VIDmhXmFL-13" value="" style="edgeStyle=orthogonalEdgeStyle;rounded=0;orthogonalLoop=1;jettySize=auto;html=1;fillColor=#1ba1e2;strokeColor=#006EAF;" edge="1" parent="1" source="vkAyM-PxPu1VIDmhXmFL-10" target="vkAyM-PxPu1VIDmhXmFL-12">
          <mxGeometry relative="1" as="geometry" />
        </mxCell>
        <mxCell id="vkAyM-PxPu1VIDmhXmFL-10" value="Metodi" style="text;strokeColor=#006EAF;fillColor=#1ba1e2;html=1;fontSize=24;fontStyle=1;verticalAlign=middle;align=center;fontColor=#ffffff;" vertex="1" parent="1">
          <mxGeometry x="305" y="500" width="130" height="40" as="geometry" />
        </mxCell>
        <mxCell id="vkAyM-PxPu1VIDmhXmFL-15" value="" style="edgeStyle=orthogonalEdgeStyle;rounded=0;orthogonalLoop=1;jettySize=auto;html=1;fillColor=#1ba1e2;strokeColor=#006EAF;" edge="1" parent="1" source="vkAyM-PxPu1VIDmhXmFL-12" target="vkAyM-PxPu1VIDmhXmFL-14">
          <mxGeometry relative="1" as="geometry" />
        </mxCell>
        <mxCell id="vkAyM-PxPu1VIDmhXmFL-60" value="" style="edgeStyle=orthogonalEdgeStyle;rounded=0;orthogonalLoop=1;jettySize=auto;html=1;" edge="1" parent="1" source="vkAyM-PxPu1VIDmhXmFL-12" target="vkAyM-PxPu1VIDmhXmFL-59">
          <mxGeometry relative="1" as="geometry" />
        </mxCell>
        <mxCell id="vkAyM-PxPu1VIDmhXmFL-12" value="Costruttori" style="text;strokeColor=#006EAF;fillColor=#1ba1e2;html=1;fontSize=24;fontStyle=1;verticalAlign=middle;align=center;fontColor=#ffffff;" vertex="1" parent="1">
          <mxGeometry x="515" y="500" width="145" height="40" as="geometry" />
        </mxCell>
        <mxCell id="vkAyM-PxPu1VIDmhXmFL-58" value="" style="edgeStyle=orthogonalEdgeStyle;rounded=0;orthogonalLoop=1;jettySize=auto;html=1;" edge="1" parent="1" source="vkAyM-PxPu1VIDmhXmFL-14" target="vkAyM-PxPu1VIDmhXmFL-57">
          <mxGeometry relative="1" as="geometry" />
        </mxCell>
        <mxCell id="vkAyM-PxPu1VIDmhXmFL-14" value="toString" style="text;strokeColor=#006EAF;fillColor=#1ba1e2;html=1;fontSize=24;fontStyle=1;verticalAlign=middle;align=center;fontColor=#ffffff;" vertex="1" parent="1">
          <mxGeometry x="515" y="560" width="145" height="40" as="geometry" />
        </mxCell>
        <mxCell id="vkAyM-PxPu1VIDmhXmFL-17" value="Array" style="text;strokeColor=#001DBC;fillColor=#0050ef;html=1;fontSize=24;fontStyle=1;verticalAlign=middle;align=center;fontColor=#ffffff;" vertex="1" parent="1">
          <mxGeometry x="95" y="520" width="130" height="40" as="geometry" />
        </mxCell>
        <mxCell id="vkAyM-PxPu1VIDmhXmFL-24" value="" style="edgeStyle=orthogonalEdgeStyle;rounded=0;orthogonalLoop=1;jettySize=auto;html=1;" edge="1" parent="1" source="vkAyM-PxPu1VIDmhXmFL-21" target="vkAyM-PxPu1VIDmhXmFL-23">
          <mxGeometry relative="1" as="geometry" />
        </mxCell>
        <mxCell id="vkAyM-PxPu1VIDmhXmFL-34" value="" style="edgeStyle=orthogonalEdgeStyle;rounded=0;orthogonalLoop=1;jettySize=auto;html=1;" edge="1" parent="1" source="vkAyM-PxPu1VIDmhXmFL-21" target="vkAyM-PxPu1VIDmhXmFL-33">
          <mxGeometry relative="1" as="geometry" />
        </mxCell>
        <mxCell id="vkAyM-PxPu1VIDmhXmFL-21" value="interi" style="text;strokeColor=#006EAF;fillColor=#1ba1e2;html=1;fontSize=24;fontStyle=1;verticalAlign=middle;align=center;fontColor=#ffffff;" vertex="1" parent="1">
          <mxGeometry x="500" y="130" width="130" height="40" as="geometry" />
        </mxCell>
        <mxCell id="vkAyM-PxPu1VIDmhXmFL-26" value="" style="edgeStyle=orthogonalEdgeStyle;rounded=0;orthogonalLoop=1;jettySize=auto;html=1;" edge="1" parent="1" source="vkAyM-PxPu1VIDmhXmFL-23" target="vkAyM-PxPu1VIDmhXmFL-25">
          <mxGeometry relative="1" as="geometry" />
        </mxCell>
        <mxCell id="vkAyM-PxPu1VIDmhXmFL-23" value="byte" style="text;strokeColor=#A50040;fillColor=#d80073;html=1;fontSize=24;fontStyle=1;verticalAlign=middle;align=center;fontColor=#ffffff;" vertex="1" parent="1">
          <mxGeometry x="500" y="190" width="130" height="40" as="geometry" />
        </mxCell>
        <mxCell id="vkAyM-PxPu1VIDmhXmFL-28" value="" style="edgeStyle=orthogonalEdgeStyle;rounded=0;orthogonalLoop=1;jettySize=auto;html=1;" edge="1" parent="1" source="vkAyM-PxPu1VIDmhXmFL-25" target="vkAyM-PxPu1VIDmhXmFL-27">
          <mxGeometry relative="1" as="geometry" />
        </mxCell>
        <mxCell id="vkAyM-PxPu1VIDmhXmFL-25" value="short" style="text;strokeColor=#A50040;fillColor=#d80073;html=1;fontSize=24;fontStyle=1;verticalAlign=middle;align=center;fontColor=#ffffff;" vertex="1" parent="1">
          <mxGeometry x="500" y="250" width="130" height="40" as="geometry" />
        </mxCell>
        <mxCell id="vkAyM-PxPu1VIDmhXmFL-32" value="" style="edgeStyle=orthogonalEdgeStyle;rounded=0;orthogonalLoop=1;jettySize=auto;html=1;" edge="1" parent="1" source="vkAyM-PxPu1VIDmhXmFL-27" target="vkAyM-PxPu1VIDmhXmFL-31">
          <mxGeometry relative="1" as="geometry" />
        </mxCell>
        <mxCell id="vkAyM-PxPu1VIDmhXmFL-27" value="int" style="text;strokeColor=#A50040;fillColor=#d80073;html=1;fontSize=24;fontStyle=1;verticalAlign=middle;align=center;fontColor=#ffffff;" vertex="1" parent="1">
          <mxGeometry x="500" y="310" width="130" height="40" as="geometry" />
        </mxCell>
        <mxCell id="vkAyM-PxPu1VIDmhXmFL-31" value="long" style="text;strokeColor=#A50040;fillColor=#d80073;html=1;fontSize=24;fontStyle=1;verticalAlign=middle;align=center;fontColor=#ffffff;" vertex="1" parent="1">
          <mxGeometry x="500" y="370" width="130" height="40" as="geometry" />
        </mxCell>
        <mxCell id="vkAyM-PxPu1VIDmhXmFL-40" value="" style="edgeStyle=orthogonalEdgeStyle;rounded=0;orthogonalLoop=1;jettySize=auto;html=1;" edge="1" parent="1" source="vkAyM-PxPu1VIDmhXmFL-33" target="vkAyM-PxPu1VIDmhXmFL-39">
          <mxGeometry relative="1" as="geometry" />
        </mxCell>
        <mxCell id="vkAyM-PxPu1VIDmhXmFL-33" value="reali" style="text;strokeColor=#006EAF;fillColor=#1ba1e2;html=1;fontSize=24;fontStyle=1;verticalAlign=middle;align=center;fontColor=#ffffff;" vertex="1" parent="1">
          <mxGeometry x="657" y="130" width="130" height="40" as="geometry" />
        </mxCell>
        <mxCell id="vkAyM-PxPu1VIDmhXmFL-38" value="" style="edgeStyle=orthogonalEdgeStyle;rounded=0;orthogonalLoop=1;jettySize=auto;html=1;" edge="1" parent="1" source="vkAyM-PxPu1VIDmhXmFL-35" target="vkAyM-PxPu1VIDmhXmFL-37">
          <mxGeometry relative="1" as="geometry" />
        </mxCell>
        <mxCell id="vkAyM-PxPu1VIDmhXmFL-35" value="float" style="text;strokeColor=#A50040;fillColor=#d80073;html=1;fontSize=24;fontStyle=1;verticalAlign=middle;align=center;fontColor=#ffffff;" vertex="1" parent="1">
          <mxGeometry x="657" y="190" width="130" height="40" as="geometry" />
        </mxCell>
        <mxCell id="vkAyM-PxPu1VIDmhXmFL-36" value="" style="edgeStyle=orthogonalEdgeStyle;rounded=0;orthogonalLoop=1;jettySize=auto;html=1;" edge="1" target="vkAyM-PxPu1VIDmhXmFL-35" parent="1">
          <mxGeometry relative="1" as="geometry">
            <mxPoint x="722" y="170" as="sourcePoint" />
          </mxGeometry>
        </mxCell>
        <mxCell id="vkAyM-PxPu1VIDmhXmFL-37" value="double" style="text;strokeColor=#A50040;fillColor=#d80073;html=1;fontSize=24;fontStyle=1;verticalAlign=middle;align=center;fontColor=#ffffff;" vertex="1" parent="1">
          <mxGeometry x="657" y="250" width="130" height="40" as="geometry" />
        </mxCell>
        <mxCell id="vkAyM-PxPu1VIDmhXmFL-42" value="" style="edgeStyle=orthogonalEdgeStyle;rounded=0;orthogonalLoop=1;jettySize=auto;html=1;" edge="1" parent="1" source="vkAyM-PxPu1VIDmhXmFL-39" target="vkAyM-PxPu1VIDmhXmFL-41">
          <mxGeometry relative="1" as="geometry" />
        </mxCell>
        <mxCell id="vkAyM-PxPu1VIDmhXmFL-44" value="" style="edgeStyle=orthogonalEdgeStyle;rounded=0;orthogonalLoop=1;jettySize=auto;html=1;" edge="1" parent="1" source="vkAyM-PxPu1VIDmhXmFL-39" target="vkAyM-PxPu1VIDmhXmFL-43">
          <mxGeometry relative="1" as="geometry" />
        </mxCell>
        <mxCell id="vkAyM-PxPu1VIDmhXmFL-39" value="boolean" style="text;strokeColor=#006EAF;fillColor=#1ba1e2;html=1;fontSize=24;fontStyle=1;verticalAlign=middle;align=center;fontColor=#ffffff;" vertex="1" parent="1">
          <mxGeometry x="820" y="130" width="130" height="40" as="geometry" />
        </mxCell>
        <mxCell id="vkAyM-PxPu1VIDmhXmFL-41" value="char" style="text;strokeColor=#006EAF;fillColor=#1ba1e2;html=1;fontSize=24;fontStyle=1;verticalAlign=middle;align=center;fontColor=#ffffff;" vertex="1" parent="1">
          <mxGeometry x="990" y="130" width="130" height="40" as="geometry" />
        </mxCell>
        <mxCell id="vkAyM-PxPu1VIDmhXmFL-46" value="" style="edgeStyle=orthogonalEdgeStyle;rounded=0;orthogonalLoop=1;jettySize=auto;html=1;" edge="1" parent="1" source="vkAyM-PxPu1VIDmhXmFL-43" target="vkAyM-PxPu1VIDmhXmFL-45">
          <mxGeometry relative="1" as="geometry" />
        </mxCell>
        <mxCell id="vkAyM-PxPu1VIDmhXmFL-43" value="true" style="text;strokeColor=#A50040;fillColor=#d80073;html=1;fontSize=24;fontStyle=1;verticalAlign=middle;align=center;fontColor=#ffffff;" vertex="1" parent="1">
          <mxGeometry x="835" y="190" width="100" height="40" as="geometry" />
        </mxCell>
        <mxCell id="vkAyM-PxPu1VIDmhXmFL-45" value="false" style="text;strokeColor=#A50040;fillColor=#d80073;html=1;fontSize=24;fontStyle=1;verticalAlign=middle;align=center;fontColor=#ffffff;" vertex="1" parent="1">
          <mxGeometry x="835" y="250" width="100" height="40" as="geometry" />
        </mxCell>
        <mxCell id="vkAyM-PxPu1VIDmhXmFL-47" value="8" style="ellipse;whiteSpace=wrap;html=1;aspect=fixed;fillColor=#60a917;fontColor=#ffffff;strokeColor=#2D7600;" vertex="1" parent="1">
          <mxGeometry x="600" y="180" width="40" height="40" as="geometry" />
        </mxCell>
        <mxCell id="vkAyM-PxPu1VIDmhXmFL-48" value="16" style="ellipse;whiteSpace=wrap;html=1;aspect=fixed;fillColor=#60a917;fontColor=#ffffff;strokeColor=#2D7600;" vertex="1" parent="1">
          <mxGeometry x="600" y="240" width="40" height="40" as="geometry" />
        </mxCell>
        <mxCell id="vkAyM-PxPu1VIDmhXmFL-49" value="32" style="ellipse;whiteSpace=wrap;html=1;aspect=fixed;fillColor=#60a917;fontColor=#ffffff;strokeColor=#2D7600;" vertex="1" parent="1">
          <mxGeometry x="600" y="300" width="40" height="40" as="geometry" />
        </mxCell>
        <mxCell id="vkAyM-PxPu1VIDmhXmFL-50" value="64" style="ellipse;whiteSpace=wrap;html=1;aspect=fixed;fillColor=#60a917;fontColor=#ffffff;strokeColor=#2D7600;" vertex="1" parent="1">
          <mxGeometry x="600" y="360" width="40" height="40" as="geometry" />
        </mxCell>
        <mxCell id="vkAyM-PxPu1VIDmhXmFL-51" value="64" style="ellipse;whiteSpace=wrap;html=1;aspect=fixed;fillColor=#60a917;fontColor=#ffffff;strokeColor=#2D7600;" vertex="1" parent="1">
          <mxGeometry x="770" y="240" width="40" height="40" as="geometry" />
        </mxCell>
        <mxCell id="vkAyM-PxPu1VIDmhXmFL-52" value="32" style="ellipse;whiteSpace=wrap;html=1;aspect=fixed;fillColor=#60a917;fontColor=#ffffff;strokeColor=#2D7600;" vertex="1" parent="1">
          <mxGeometry x="770" y="180" width="40" height="40" as="geometry" />
        </mxCell>
        <mxCell id="vkAyM-PxPu1VIDmhXmFL-53" value="16" style="ellipse;whiteSpace=wrap;html=1;aspect=fixed;fillColor=#60a917;fontColor=#ffffff;strokeColor=#2D7600;" vertex="1" parent="1">
          <mxGeometry x="1100" y="120" width="40" height="40" as="geometry" />
        </mxCell>
        <mxCell id="vkAyM-PxPu1VIDmhXmFL-63" style="edgeStyle=orthogonalEdgeStyle;rounded=0;orthogonalLoop=1;jettySize=auto;html=1;exitX=0;exitY=0.5;exitDx=0;exitDy=0;entryX=0;entryY=0.75;entryDx=0;entryDy=0;dashed=1;" edge="1" parent="1" source="vkAyM-PxPu1VIDmhXmFL-55" target="vkAyM-PxPu1VIDmhXmFL-57">
          <mxGeometry relative="1" as="geometry" />
        </mxCell>
        <mxCell id="vkAyM-PxPu1VIDmhXmFL-55" value="&lt;ul&gt;&lt;li&gt;public&lt;/li&gt;&lt;li&gt;private&lt;/li&gt;&lt;li&gt;protected&lt;/li&gt;&lt;li&gt;(default)&lt;/li&gt;&lt;/ul&gt;" style="text;strokeColor=#3700CC;fillColor=#6a00ff;html=1;whiteSpace=wrap;verticalAlign=middle;overflow=hidden;fontColor=#ffffff;" vertex="1" parent="1">
          <mxGeometry x="90" y="20" width="140" height="80" as="geometry" />
        </mxCell>
        <mxCell id="vkAyM-PxPu1VIDmhXmFL-56" value="modificatori&lt;div&gt;di accesso&lt;/div&gt;" style="text;strokeColor=#3700CC;fillColor=#6a00ff;html=1;fontSize=24;fontStyle=1;verticalAlign=middle;align=center;fontColor=#ffffff;" vertex="1" parent="1">
          <mxGeometry x="240" y="20" width="200" height="80" as="geometry" />
        </mxCell>
        <mxCell id="vkAyM-PxPu1VIDmhXmFL-57" value="getters, setters" style="text;strokeColor=#006EAF;fillColor=#1ba1e2;html=1;fontSize=24;fontStyle=1;verticalAlign=middle;align=center;fontColor=#ffffff;" vertex="1" parent="1">
          <mxGeometry x="478" y="630" width="220" height="40" as="geometry" />
        </mxCell>
        <mxCell id="vkAyM-PxPu1VIDmhXmFL-59" value="overload" style="text;strokeColor=#BD7000;fillColor=#f0a30a;html=1;fontSize=24;fontStyle=1;verticalAlign=middle;align=center;fontColor=#000000;" vertex="1" parent="1">
          <mxGeometry x="740" y="500" width="145" height="40" as="geometry" />
        </mxCell>
        <mxCell id="vkAyM-PxPu1VIDmhXmFL-61" value="" style="edgeStyle=orthogonalEdgeStyle;rounded=0;orthogonalLoop=1;jettySize=auto;html=1;" edge="1" target="vkAyM-PxPu1VIDmhXmFL-62" parent="1">
          <mxGeometry relative="1" as="geometry">
            <mxPoint x="660" y="580" as="sourcePoint" />
          </mxGeometry>
        </mxCell>
        <mxCell id="vkAyM-PxPu1VIDmhXmFL-62" value="override" style="text;strokeColor=#BD7000;fillColor=#f0a30a;html=1;fontSize=24;fontStyle=1;verticalAlign=middle;align=center;fontColor=#000000;" vertex="1" parent="1">
          <mxGeometry x="740" y="560" width="145" height="40" as="geometry" />
        </mxCell>
        <mxCell id="vkAyM-PxPu1VIDmhXmFL-64" value="" style="edgeStyle=orthogonalEdgeStyle;rounded=0;orthogonalLoop=1;jettySize=auto;html=1;" edge="1" target="vkAyM-PxPu1VIDmhXmFL-65" parent="1">
          <mxGeometry relative="1" as="geometry">
            <mxPoint x="700" y="650" as="sourcePoint" />
          </mxGeometry>
        </mxCell>
        <mxCell id="vkAyM-PxPu1VIDmhXmFL-65" value="incapsulamento" style="text;strokeColor=#BD7000;fillColor=#f0a30a;html=1;fontSize=24;fontStyle=1;verticalAlign=middle;align=center;fontColor=#000000;" vertex="1" parent="1">
          <mxGeometry x="740" y="630" width="240" height="40" as="geometry" />
        </mxCell>
      </root>
    </mxGraphModel>
  </diagram>
  <diagram id="ojhWEJ59z7Wqa1k0CiRd" name="Pagina-2">
    <mxGraphModel dx="1430" dy="781" grid="1" gridSize="10" guides="1" tooltips="1" connect="1" arrows="1" fold="1" page="1" pageScale="1" pageWidth="1169" pageHeight="827" math="0" shadow="0">
      <root>
        <mxCell id="0" />
        <mxCell id="1" parent="0" />
        <mxCell id="B_xlv9ZZPVx8JDdO7XdW-27" value="utilities" style="shape=folder;fontStyle=1;spacingTop=10;tabWidth=40;tabHeight=14;tabPosition=left;html=1;whiteSpace=wrap;fillColor=#fff2cc;strokeColor=#d6b656;" vertex="1" parent="1">
          <mxGeometry x="990" y="364" width="65" height="50" as="geometry" />
        </mxCell>
        <mxCell id="B_xlv9ZZPVx8JDdO7XdW-1" value="Todo" style="swimlane;fontStyle=1;align=center;verticalAlign=top;childLayout=stackLayout;horizontal=1;startSize=26;horizontalStack=0;resizeParent=1;resizeParentMax=0;resizeLast=0;collapsible=1;marginBottom=0;whiteSpace=wrap;html=1;" vertex="1" parent="1">
          <mxGeometry x="180" y="120" width="200" height="138" as="geometry" />
        </mxCell>
        <mxCell id="B_xlv9ZZPVx8JDdO7XdW-2" value="- descrizione: String" style="text;strokeColor=none;fillColor=none;align=left;verticalAlign=top;spacingLeft=4;spacingRight=4;overflow=hidden;rotatable=0;points=[[0,0.5],[1,0.5]];portConstraint=eastwest;whiteSpace=wrap;html=1;" vertex="1" parent="B_xlv9ZZPVx8JDdO7XdW-1">
          <mxGeometry y="26" width="200" height="26" as="geometry" />
        </mxCell>
        <mxCell id="B_xlv9ZZPVx8JDdO7XdW-5" value="- data: LocalDate" style="text;strokeColor=none;fillColor=none;align=left;verticalAlign=top;spacingLeft=4;spacingRight=4;overflow=hidden;rotatable=0;points=[[0,0.5],[1,0.5]];portConstraint=eastwest;whiteSpace=wrap;html=1;" vertex="1" parent="B_xlv9ZZPVx8JDdO7XdW-1">
          <mxGeometry y="52" width="200" height="26" as="geometry" />
        </mxCell>
        <mxCell id="B_xlv9ZZPVx8JDdO7XdW-6" value="- completato: boolean" style="text;strokeColor=none;fillColor=none;align=left;verticalAlign=top;spacingLeft=4;spacingRight=4;overflow=hidden;rotatable=0;points=[[0,0.5],[1,0.5]];portConstraint=eastwest;whiteSpace=wrap;html=1;" vertex="1" parent="B_xlv9ZZPVx8JDdO7XdW-1">
          <mxGeometry y="78" width="200" height="26" as="geometry" />
        </mxCell>
        <mxCell id="B_xlv9ZZPVx8JDdO7XdW-3" value="" style="line;strokeWidth=1;fillColor=none;align=left;verticalAlign=middle;spacingTop=-1;spacingLeft=3;spacingRight=3;rotatable=0;labelPosition=right;points=[];portConstraint=eastwest;strokeColor=inherit;" vertex="1" parent="B_xlv9ZZPVx8JDdO7XdW-1">
          <mxGeometry y="104" width="200" height="8" as="geometry" />
        </mxCell>
        <mxCell id="B_xlv9ZZPVx8JDdO7XdW-4" value="+ costruttore, getters, setters" style="text;strokeColor=none;fillColor=none;align=left;verticalAlign=top;spacingLeft=4;spacingRight=4;overflow=hidden;rotatable=0;points=[[0,0.5],[1,0.5]];portConstraint=eastwest;whiteSpace=wrap;html=1;" vertex="1" parent="B_xlv9ZZPVx8JDdO7XdW-1">
          <mxGeometry y="112" width="200" height="26" as="geometry" />
        </mxCell>
        <mxCell id="B_xlv9ZZPVx8JDdO7XdW-7" value="TodoController" style="swimlane;fontStyle=1;align=center;verticalAlign=top;childLayout=stackLayout;horizontal=1;startSize=26;horizontalStack=0;resizeParent=1;resizeParentMax=0;resizeLast=0;collapsible=1;marginBottom=0;whiteSpace=wrap;html=1;" vertex="1" parent="1">
          <mxGeometry x="530" y="107" width="160" height="190" as="geometry" />
        </mxCell>
        <mxCell id="B_xlv9ZZPVx8JDdO7XdW-8" value="- note: Todo[]" style="text;strokeColor=none;fillColor=none;align=left;verticalAlign=top;spacingLeft=4;spacingRight=4;overflow=hidden;rotatable=0;points=[[0,0.5],[1,0.5]];portConstraint=eastwest;whiteSpace=wrap;html=1;" vertex="1" parent="B_xlv9ZZPVx8JDdO7XdW-7">
          <mxGeometry y="26" width="160" height="26" as="geometry" />
        </mxCell>
        <mxCell id="B_xlv9ZZPVx8JDdO7XdW-9" value="" style="line;strokeWidth=1;fillColor=none;align=left;verticalAlign=middle;spacingTop=-1;spacingLeft=3;spacingRight=3;rotatable=0;labelPosition=right;points=[];portConstraint=eastwest;strokeColor=inherit;" vertex="1" parent="B_xlv9ZZPVx8JDdO7XdW-7">
          <mxGeometry y="52" width="160" height="8" as="geometry" />
        </mxCell>
        <mxCell id="B_xlv9ZZPVx8JDdO7XdW-10" value="+ addTodo(Todo): void" style="text;strokeColor=none;fillColor=none;align=left;verticalAlign=top;spacingLeft=4;spacingRight=4;overflow=hidden;rotatable=0;points=[[0,0.5],[1,0.5]];portConstraint=eastwest;whiteSpace=wrap;html=1;" vertex="1" parent="B_xlv9ZZPVx8JDdO7XdW-7">
          <mxGeometry y="60" width="160" height="26" as="geometry" />
        </mxCell>
        <mxCell id="B_xlv9ZZPVx8JDdO7XdW-12" value="+ getTodos(): Todo[]" style="text;strokeColor=none;fillColor=none;align=left;verticalAlign=top;spacingLeft=4;spacingRight=4;overflow=hidden;rotatable=0;points=[[0,0.5],[1,0.5]];portConstraint=eastwest;whiteSpace=wrap;html=1;" vertex="1" parent="B_xlv9ZZPVx8JDdO7XdW-7">
          <mxGeometry y="86" width="160" height="26" as="geometry" />
        </mxCell>
        <mxCell id="B_xlv9ZZPVx8JDdO7XdW-13" value="+ updateTodo(Todo): void" style="text;strokeColor=none;fillColor=none;align=left;verticalAlign=top;spacingLeft=4;spacingRight=4;overflow=hidden;rotatable=0;points=[[0,0.5],[1,0.5]];portConstraint=eastwest;whiteSpace=wrap;html=1;" vertex="1" parent="B_xlv9ZZPVx8JDdO7XdW-7">
          <mxGeometry y="112" width="160" height="26" as="geometry" />
        </mxCell>
        <mxCell id="B_xlv9ZZPVx8JDdO7XdW-14" value="+ deleteTodo(int): void" style="text;strokeColor=none;fillColor=none;align=left;verticalAlign=top;spacingLeft=4;spacingRight=4;overflow=hidden;rotatable=0;points=[[0,0.5],[1,0.5]];portConstraint=eastwest;whiteSpace=wrap;html=1;" vertex="1" parent="B_xlv9ZZPVx8JDdO7XdW-7">
          <mxGeometry y="138" width="160" height="26" as="geometry" />
        </mxCell>
        <mxCell id="B_xlv9ZZPVx8JDdO7XdW-31" value="+ getTodoByPos(int): Todo" style="text;strokeColor=none;fillColor=none;align=left;verticalAlign=top;spacingLeft=4;spacingRight=4;overflow=hidden;rotatable=0;points=[[0,0.5],[1,0.5]];portConstraint=eastwest;whiteSpace=wrap;html=1;" vertex="1" parent="B_xlv9ZZPVx8JDdO7XdW-7">
          <mxGeometry y="164" width="160" height="26" as="geometry" />
        </mxCell>
        <mxCell id="B_xlv9ZZPVx8JDdO7XdW-11" value="" style="endArrow=diamondThin;endFill=0;endSize=24;html=1;rounded=0;" edge="1" parent="1" source="B_xlv9ZZPVx8JDdO7XdW-1" target="B_xlv9ZZPVx8JDdO7XdW-7">
          <mxGeometry width="160" relative="1" as="geometry">
            <mxPoint x="510" y="330" as="sourcePoint" />
            <mxPoint x="670" y="330" as="targetPoint" />
          </mxGeometry>
        </mxCell>
        <mxCell id="B_xlv9ZZPVx8JDdO7XdW-15" value="TodoView" style="swimlane;fontStyle=1;align=center;verticalAlign=top;childLayout=stackLayout;horizontal=1;startSize=26;horizontalStack=0;resizeParent=1;resizeParentMax=0;resizeLast=0;collapsible=1;marginBottom=0;whiteSpace=wrap;html=1;" vertex="1" parent="1">
          <mxGeometry x="810" y="140" width="160" height="60" as="geometry" />
        </mxCell>
        <mxCell id="B_xlv9ZZPVx8JDdO7XdW-17" value="" style="line;strokeWidth=1;fillColor=none;align=left;verticalAlign=middle;spacingTop=-1;spacingLeft=3;spacingRight=3;rotatable=0;labelPosition=right;points=[];portConstraint=eastwest;strokeColor=inherit;" vertex="1" parent="B_xlv9ZZPVx8JDdO7XdW-15">
          <mxGeometry y="26" width="160" height="8" as="geometry" />
        </mxCell>
        <mxCell id="B_xlv9ZZPVx8JDdO7XdW-18" value="+ main()" style="text;strokeColor=none;fillColor=none;align=left;verticalAlign=top;spacingLeft=4;spacingRight=4;overflow=hidden;rotatable=0;points=[[0,0.5],[1,0.5]];portConstraint=eastwest;whiteSpace=wrap;html=1;" vertex="1" parent="B_xlv9ZZPVx8JDdO7XdW-15">
          <mxGeometry y="34" width="160" height="26" as="geometry" />
        </mxCell>
        <mxCell id="B_xlv9ZZPVx8JDdO7XdW-19" style="edgeStyle=orthogonalEdgeStyle;rounded=0;orthogonalLoop=1;jettySize=auto;html=1;exitX=0;exitY=0.5;exitDx=0;exitDy=0;endArrow=none;startFill=0;" edge="1" parent="1" source="B_xlv9ZZPVx8JDdO7XdW-18" target="B_xlv9ZZPVx8JDdO7XdW-7">
          <mxGeometry relative="1" as="geometry" />
        </mxCell>
        <mxCell id="B_xlv9ZZPVx8JDdO7XdW-21" value="MioScanner" style="swimlane;fontStyle=1;align=center;verticalAlign=top;childLayout=stackLayout;horizontal=1;startSize=26;horizontalStack=0;resizeParent=1;resizeParentMax=0;resizeLast=0;collapsible=1;marginBottom=0;whiteSpace=wrap;html=1;" vertex="1" parent="1">
          <mxGeometry x="820" y="376" width="160" height="112" as="geometry" />
        </mxCell>
        <mxCell id="B_xlv9ZZPVx8JDdO7XdW-22" value="+ scanner: Scanner" style="text;strokeColor=none;fillColor=none;align=left;verticalAlign=top;spacingLeft=4;spacingRight=4;overflow=hidden;rotatable=0;points=[[0,0.5],[1,0.5]];portConstraint=eastwest;whiteSpace=wrap;html=1;" vertex="1" parent="B_xlv9ZZPVx8JDdO7XdW-21">
          <mxGeometry y="26" width="160" height="26" as="geometry" />
        </mxCell>
        <mxCell id="B_xlv9ZZPVx8JDdO7XdW-23" value="" style="line;strokeWidth=1;fillColor=none;align=left;verticalAlign=middle;spacingTop=-1;spacingLeft=3;spacingRight=3;rotatable=0;labelPosition=right;points=[];portConstraint=eastwest;strokeColor=inherit;" vertex="1" parent="B_xlv9ZZPVx8JDdO7XdW-21">
          <mxGeometry y="52" width="160" height="8" as="geometry" />
        </mxCell>
        <mxCell id="B_xlv9ZZPVx8JDdO7XdW-24" value="+ leggiString(String): String" style="text;strokeColor=none;fillColor=none;align=left;verticalAlign=top;spacingLeft=4;spacingRight=4;overflow=hidden;rotatable=0;points=[[0,0.5],[1,0.5]];portConstraint=eastwest;whiteSpace=wrap;html=1;" vertex="1" parent="B_xlv9ZZPVx8JDdO7XdW-21">
          <mxGeometry y="60" width="160" height="26" as="geometry" />
        </mxCell>
        <mxCell id="B_xlv9ZZPVx8JDdO7XdW-25" value="+ leggiIntero(String): int" style="text;strokeColor=none;fillColor=none;align=left;verticalAlign=top;spacingLeft=4;spacingRight=4;overflow=hidden;rotatable=0;points=[[0,0.5],[1,0.5]];portConstraint=eastwest;whiteSpace=wrap;html=1;" vertex="1" parent="B_xlv9ZZPVx8JDdO7XdW-21">
          <mxGeometry y="86" width="160" height="26" as="geometry" />
        </mxCell>
        <mxCell id="B_xlv9ZZPVx8JDdO7XdW-26" style="edgeStyle=orthogonalEdgeStyle;rounded=0;orthogonalLoop=1;jettySize=auto;html=1;entryX=0.466;entryY=0.013;entryDx=0;entryDy=0;entryPerimeter=0;endArrow=none;startFill=0;" edge="1" parent="1" source="B_xlv9ZZPVx8JDdO7XdW-15" target="B_xlv9ZZPVx8JDdO7XdW-21">
          <mxGeometry relative="1" as="geometry" />
        </mxCell>
        <mxCell id="B_xlv9ZZPVx8JDdO7XdW-28" value="view" style="shape=folder;fontStyle=1;spacingTop=10;tabWidth=40;tabHeight=14;tabPosition=left;html=1;whiteSpace=wrap;fillColor=#fff2cc;strokeColor=#d6b656;" vertex="1" parent="1">
          <mxGeometry x="810" y="70" width="65" height="50" as="geometry" />
        </mxCell>
        <mxCell id="B_xlv9ZZPVx8JDdO7XdW-29" value="controller" style="shape=folder;fontStyle=1;spacingTop=10;tabWidth=40;tabHeight=14;tabPosition=left;html=1;whiteSpace=wrap;fillColor=#fff2cc;strokeColor=#d6b656;" vertex="1" parent="1">
          <mxGeometry x="530" y="40" width="65" height="50" as="geometry" />
        </mxCell>
        <mxCell id="B_xlv9ZZPVx8JDdO7XdW-30" value="model" style="shape=folder;fontStyle=1;spacingTop=10;tabWidth=40;tabHeight=14;tabPosition=left;html=1;whiteSpace=wrap;fillColor=#fff2cc;strokeColor=#d6b656;" vertex="1" parent="1">
          <mxGeometry x="180" y="50" width="65" height="50" as="geometry" />
        </mxCell>
      </root>
    </mxGraphModel>
  </diagram>
  <diagram id="AfEVwcOYfVV4rNFtL_1X" name="geometria">
    <mxGraphModel dx="1434" dy="772" grid="1" gridSize="10" guides="1" tooltips="1" connect="1" arrows="1" fold="1" page="1" pageScale="1" pageWidth="1169" pageHeight="827" math="0" shadow="0">
      <root>
        <mxCell id="0" />
        <mxCell id="1" parent="0" />
        <mxCell id="fqF_J9sSAynWKtYLdouB-1" value="" style="endArrow=classic;html=1;rounded=0;" edge="1" parent="1">
          <mxGeometry width="50" height="50" relative="1" as="geometry">
            <mxPoint x="280" y="520" as="sourcePoint" />
            <mxPoint x="280" y="80" as="targetPoint" />
          </mxGeometry>
        </mxCell>
        <mxCell id="fqF_J9sSAynWKtYLdouB-2" value="" style="endArrow=classic;html=1;rounded=0;" edge="1" parent="1">
          <mxGeometry width="50" height="50" relative="1" as="geometry">
            <mxPoint x="240" y="480" as="sourcePoint" />
            <mxPoint x="1000" y="480" as="targetPoint" />
          </mxGeometry>
        </mxCell>
        <mxCell id="fqF_J9sSAynWKtYLdouB-3" value="x" style="text;strokeColor=none;fillColor=none;html=1;fontSize=24;fontStyle=1;verticalAlign=middle;align=center;" vertex="1" parent="1">
          <mxGeometry x="980" y="460" width="100" height="40" as="geometry" />
        </mxCell>
        <mxCell id="fqF_J9sSAynWKtYLdouB-4" value="y" style="text;strokeColor=none;fillColor=none;html=1;fontSize=24;fontStyle=1;verticalAlign=middle;align=center;" vertex="1" parent="1">
          <mxGeometry x="230" y="30" width="100" height="40" as="geometry" />
        </mxCell>
        <mxCell id="fqF_J9sSAynWKtYLdouB-5" value="" style="ellipse;whiteSpace=wrap;html=1;aspect=fixed;" vertex="1" parent="1">
          <mxGeometry x="395" y="395" width="10" height="10" as="geometry" />
        </mxCell>
        <mxCell id="fqF_J9sSAynWKtYLdouB-6" value="A(3,2)" style="text;strokeColor=none;fillColor=none;html=1;fontSize=24;fontStyle=1;verticalAlign=middle;align=center;" vertex="1" parent="1">
          <mxGeometry x="350" y="405" width="100" height="40" as="geometry" />
        </mxCell>
        <mxCell id="fqF_J9sSAynWKtYLdouB-7" value="" style="ellipse;whiteSpace=wrap;html=1;aspect=fixed;" vertex="1" parent="1">
          <mxGeometry x="555" y="395" width="10" height="10" as="geometry" />
        </mxCell>
        <mxCell id="fqF_J9sSAynWKtYLdouB-8" value="B(7,2)" style="text;strokeColor=none;fillColor=none;html=1;fontSize=24;fontStyle=1;verticalAlign=middle;align=center;" vertex="1" parent="1">
          <mxGeometry x="510" y="405" width="100" height="40" as="geometry" />
        </mxCell>
        <mxCell id="fqF_J9sSAynWKtYLdouB-9" value="" style="ellipse;whiteSpace=wrap;html=1;aspect=fixed;" vertex="1" parent="1">
          <mxGeometry x="395" y="270" width="10" height="10" as="geometry" />
        </mxCell>
        <mxCell id="fqF_J9sSAynWKtYLdouB-10" value="C(3,5)" style="text;strokeColor=none;fillColor=none;html=1;fontSize=24;fontStyle=1;verticalAlign=middle;align=center;" vertex="1" parent="1">
          <mxGeometry x="350" y="280" width="100" height="40" as="geometry" />
        </mxCell>
      </root>
    </mxGraphModel>
  </diagram>
  <diagram id="_PPd4seOq6-Jepoeaybj" name="libreria">
    <mxGraphModel dx="748" dy="437" grid="1" gridSize="10" guides="1" tooltips="1" connect="1" arrows="1" fold="1" page="1" pageScale="1" pageWidth="1169" pageHeight="827" math="0" shadow="0">
      <root>
        <mxCell id="0" />
        <mxCell id="1" parent="0" />
        <mxCell id="PRytqWIBed9BBH8wDMKe-1" value="libri" style="shape=table;startSize=30;container=1;collapsible=1;childLayout=tableLayout;fixedRows=1;rowLines=0;fontStyle=1;align=center;resizeLast=1;html=1;" vertex="1" parent="1">
          <mxGeometry x="170" y="110" width="180" height="180" as="geometry" />
        </mxCell>
        <mxCell id="PRytqWIBed9BBH8wDMKe-2" value="" style="shape=tableRow;horizontal=0;startSize=0;swimlaneHead=0;swimlaneBody=0;fillColor=none;collapsible=0;dropTarget=0;points=[[0,0.5],[1,0.5]];portConstraint=eastwest;top=0;left=0;right=0;bottom=1;" vertex="1" parent="PRytqWIBed9BBH8wDMKe-1">
          <mxGeometry y="30" width="180" height="30" as="geometry" />
        </mxCell>
        <mxCell id="PRytqWIBed9BBH8wDMKe-3" value="PK" style="shape=partialRectangle;connectable=0;fillColor=none;top=0;left=0;bottom=0;right=0;fontStyle=1;overflow=hidden;whiteSpace=wrap;html=1;" vertex="1" parent="PRytqWIBed9BBH8wDMKe-2">
          <mxGeometry width="30" height="30" as="geometry">
            <mxRectangle width="30" height="30" as="alternateBounds" />
          </mxGeometry>
        </mxCell>
        <mxCell id="PRytqWIBed9BBH8wDMKe-4" value="UniqueID" style="shape=partialRectangle;connectable=0;fillColor=none;top=0;left=0;bottom=0;right=0;align=left;spacingLeft=6;fontStyle=5;overflow=hidden;whiteSpace=wrap;html=1;" vertex="1" parent="PRytqWIBed9BBH8wDMKe-2">
          <mxGeometry x="30" width="150" height="30" as="geometry">
            <mxRectangle width="150" height="30" as="alternateBounds" />
          </mxGeometry>
        </mxCell>
        <mxCell id="PRytqWIBed9BBH8wDMKe-5" value="" style="shape=tableRow;horizontal=0;startSize=0;swimlaneHead=0;swimlaneBody=0;fillColor=none;collapsible=0;dropTarget=0;points=[[0,0.5],[1,0.5]];portConstraint=eastwest;top=0;left=0;right=0;bottom=0;" vertex="1" parent="PRytqWIBed9BBH8wDMKe-1">
          <mxGeometry y="60" width="180" height="30" as="geometry" />
        </mxCell>
        <mxCell id="PRytqWIBed9BBH8wDMKe-6" value="" style="shape=partialRectangle;connectable=0;fillColor=none;top=0;left=0;bottom=0;right=0;editable=1;overflow=hidden;whiteSpace=wrap;html=1;" vertex="1" parent="PRytqWIBed9BBH8wDMKe-5">
          <mxGeometry width="30" height="30" as="geometry">
            <mxRectangle width="30" height="30" as="alternateBounds" />
          </mxGeometry>
        </mxCell>
        <mxCell id="PRytqWIBed9BBH8wDMKe-7" value="titolo" style="shape=partialRectangle;connectable=0;fillColor=none;top=0;left=0;bottom=0;right=0;align=left;spacingLeft=6;overflow=hidden;whiteSpace=wrap;html=1;" vertex="1" parent="PRytqWIBed9BBH8wDMKe-5">
          <mxGeometry x="30" width="150" height="30" as="geometry">
            <mxRectangle width="150" height="30" as="alternateBounds" />
          </mxGeometry>
        </mxCell>
        <mxCell id="PRytqWIBed9BBH8wDMKe-8" value="" style="shape=tableRow;horizontal=0;startSize=0;swimlaneHead=0;swimlaneBody=0;fillColor=none;collapsible=0;dropTarget=0;points=[[0,0.5],[1,0.5]];portConstraint=eastwest;top=0;left=0;right=0;bottom=0;" vertex="1" parent="PRytqWIBed9BBH8wDMKe-1">
          <mxGeometry y="90" width="180" height="30" as="geometry" />
        </mxCell>
        <mxCell id="PRytqWIBed9BBH8wDMKe-9" value="" style="shape=partialRectangle;connectable=0;fillColor=none;top=0;left=0;bottom=0;right=0;editable=1;overflow=hidden;whiteSpace=wrap;html=1;" vertex="1" parent="PRytqWIBed9BBH8wDMKe-8">
          <mxGeometry width="30" height="30" as="geometry">
            <mxRectangle width="30" height="30" as="alternateBounds" />
          </mxGeometry>
        </mxCell>
        <mxCell id="PRytqWIBed9BBH8wDMKe-10" value="prezzo" style="shape=partialRectangle;connectable=0;fillColor=none;top=0;left=0;bottom=0;right=0;align=left;spacingLeft=6;overflow=hidden;whiteSpace=wrap;html=1;" vertex="1" parent="PRytqWIBed9BBH8wDMKe-8">
          <mxGeometry x="30" width="150" height="30" as="geometry">
            <mxRectangle width="150" height="30" as="alternateBounds" />
          </mxGeometry>
        </mxCell>
        <mxCell id="PRytqWIBed9BBH8wDMKe-11" value="" style="shape=tableRow;horizontal=0;startSize=0;swimlaneHead=0;swimlaneBody=0;fillColor=none;collapsible=0;dropTarget=0;points=[[0,0.5],[1,0.5]];portConstraint=eastwest;top=0;left=0;right=0;bottom=0;" vertex="1" parent="PRytqWIBed9BBH8wDMKe-1">
          <mxGeometry y="120" width="180" height="30" as="geometry" />
        </mxCell>
        <mxCell id="PRytqWIBed9BBH8wDMKe-12" value="" style="shape=partialRectangle;connectable=0;fillColor=none;top=0;left=0;bottom=0;right=0;editable=1;overflow=hidden;whiteSpace=wrap;html=1;" vertex="1" parent="PRytqWIBed9BBH8wDMKe-11">
          <mxGeometry width="30" height="30" as="geometry">
            <mxRectangle width="30" height="30" as="alternateBounds" />
          </mxGeometry>
        </mxCell>
        <mxCell id="PRytqWIBed9BBH8wDMKe-13" value="pagine" style="shape=partialRectangle;connectable=0;fillColor=none;top=0;left=0;bottom=0;right=0;align=left;spacingLeft=6;overflow=hidden;whiteSpace=wrap;html=1;" vertex="1" parent="PRytqWIBed9BBH8wDMKe-11">
          <mxGeometry x="30" width="150" height="30" as="geometry">
            <mxRectangle width="150" height="30" as="alternateBounds" />
          </mxGeometry>
        </mxCell>
        <mxCell id="PRytqWIBed9BBH8wDMKe-14" style="shape=tableRow;horizontal=0;startSize=0;swimlaneHead=0;swimlaneBody=0;fillColor=none;collapsible=0;dropTarget=0;points=[[0,0.5],[1,0.5]];portConstraint=eastwest;top=0;left=0;right=0;bottom=0;" vertex="1" parent="PRytqWIBed9BBH8wDMKe-1">
          <mxGeometry y="150" width="180" height="30" as="geometry" />
        </mxCell>
        <mxCell id="PRytqWIBed9BBH8wDMKe-15" value="FK" style="shape=partialRectangle;connectable=0;fillColor=none;top=0;left=0;bottom=0;right=0;editable=1;overflow=hidden;whiteSpace=wrap;html=1;" vertex="1" parent="PRytqWIBed9BBH8wDMKe-14">
          <mxGeometry width="30" height="30" as="geometry">
            <mxRectangle width="30" height="30" as="alternateBounds" />
          </mxGeometry>
        </mxCell>
        <mxCell id="PRytqWIBed9BBH8wDMKe-16" value="editore_id" style="shape=partialRectangle;connectable=0;fillColor=none;top=0;left=0;bottom=0;right=0;align=left;spacingLeft=6;overflow=hidden;whiteSpace=wrap;html=1;" vertex="1" parent="PRytqWIBed9BBH8wDMKe-14">
          <mxGeometry x="30" width="150" height="30" as="geometry">
            <mxRectangle width="150" height="30" as="alternateBounds" />
          </mxGeometry>
        </mxCell>
        <mxCell id="PRytqWIBed9BBH8wDMKe-17" value="Libro" style="swimlane;fontStyle=1;align=center;verticalAlign=top;childLayout=stackLayout;horizontal=1;startSize=26;horizontalStack=0;resizeParent=1;resizeParentMax=0;resizeLast=0;collapsible=1;marginBottom=0;whiteSpace=wrap;html=1;" vertex="1" parent="1">
          <mxGeometry x="560" y="110" width="160" height="242" as="geometry" />
        </mxCell>
        <mxCell id="PRytqWIBed9BBH8wDMKe-18" value="- id: int" style="text;strokeColor=none;fillColor=none;align=left;verticalAlign=top;spacingLeft=4;spacingRight=4;overflow=hidden;rotatable=0;points=[[0,0.5],[1,0.5]];portConstraint=eastwest;whiteSpace=wrap;html=1;" vertex="1" parent="PRytqWIBed9BBH8wDMKe-17">
          <mxGeometry y="26" width="160" height="26" as="geometry" />
        </mxCell>
        <mxCell id="PRytqWIBed9BBH8wDMKe-24" value="- titolo: String" style="text;strokeColor=none;fillColor=none;align=left;verticalAlign=top;spacingLeft=4;spacingRight=4;overflow=hidden;rotatable=0;points=[[0,0.5],[1,0.5]];portConstraint=eastwest;whiteSpace=wrap;html=1;" vertex="1" parent="PRytqWIBed9BBH8wDMKe-17">
          <mxGeometry y="52" width="160" height="26" as="geometry" />
        </mxCell>
        <mxCell id="PRytqWIBed9BBH8wDMKe-23" value="- prezzo: double" style="text;strokeColor=none;fillColor=none;align=left;verticalAlign=top;spacingLeft=4;spacingRight=4;overflow=hidden;rotatable=0;points=[[0,0.5],[1,0.5]];portConstraint=eastwest;whiteSpace=wrap;html=1;" vertex="1" parent="PRytqWIBed9BBH8wDMKe-17">
          <mxGeometry y="78" width="160" height="26" as="geometry" />
        </mxCell>
        <mxCell id="PRytqWIBed9BBH8wDMKe-22" value="- pagine: int" style="text;strokeColor=none;fillColor=none;align=left;verticalAlign=top;spacingLeft=4;spacingRight=4;overflow=hidden;rotatable=0;points=[[0,0.5],[1,0.5]];portConstraint=eastwest;whiteSpace=wrap;html=1;" vertex="1" parent="PRytqWIBed9BBH8wDMKe-17">
          <mxGeometry y="104" width="160" height="26" as="geometry" />
        </mxCell>
        <mxCell id="PRytqWIBed9BBH8wDMKe-21" value="- editore: Editore" style="text;strokeColor=none;fillColor=none;align=left;verticalAlign=top;spacingLeft=4;spacingRight=4;overflow=hidden;rotatable=0;points=[[0,0.5],[1,0.5]];portConstraint=eastwest;whiteSpace=wrap;html=1;" vertex="1" parent="PRytqWIBed9BBH8wDMKe-17">
          <mxGeometry y="130" width="160" height="26" as="geometry" />
        </mxCell>
        <mxCell id="PRytqWIBed9BBH8wDMKe-19" value="" style="line;strokeWidth=1;fillColor=none;align=left;verticalAlign=middle;spacingTop=-1;spacingLeft=3;spacingRight=3;rotatable=0;labelPosition=right;points=[];portConstraint=eastwest;strokeColor=inherit;" vertex="1" parent="PRytqWIBed9BBH8wDMKe-17">
          <mxGeometry y="156" width="160" height="8" as="geometry" />
        </mxCell>
        <mxCell id="PRytqWIBed9BBH8wDMKe-20" value="+ costruttore" style="text;strokeColor=none;fillColor=none;align=left;verticalAlign=top;spacingLeft=4;spacingRight=4;overflow=hidden;rotatable=0;points=[[0,0.5],[1,0.5]];portConstraint=eastwest;whiteSpace=wrap;html=1;" vertex="1" parent="PRytqWIBed9BBH8wDMKe-17">
          <mxGeometry y="164" width="160" height="26" as="geometry" />
        </mxCell>
        <mxCell id="PRytqWIBed9BBH8wDMKe-26" value="+ getters, setters" style="text;strokeColor=none;fillColor=none;align=left;verticalAlign=top;spacingLeft=4;spacingRight=4;overflow=hidden;rotatable=0;points=[[0,0.5],[1,0.5]];portConstraint=eastwest;whiteSpace=wrap;html=1;" vertex="1" parent="PRytqWIBed9BBH8wDMKe-17">
          <mxGeometry y="190" width="160" height="26" as="geometry" />
        </mxCell>
        <mxCell id="PRytqWIBed9BBH8wDMKe-25" value="+ toString" style="text;strokeColor=none;fillColor=none;align=left;verticalAlign=top;spacingLeft=4;spacingRight=4;overflow=hidden;rotatable=0;points=[[0,0.5],[1,0.5]];portConstraint=eastwest;whiteSpace=wrap;html=1;" vertex="1" parent="PRytqWIBed9BBH8wDMKe-17">
          <mxGeometry y="216" width="160" height="26" as="geometry" />
        </mxCell>
        <mxCell id="PRytqWIBed9BBH8wDMKe-27" value="Editore" style="shape=table;startSize=30;container=1;collapsible=1;childLayout=tableLayout;fixedRows=1;rowLines=0;fontStyle=1;align=center;resizeLast=1;html=1;" vertex="1" parent="1">
          <mxGeometry x="170" y="430" width="180" height="120" as="geometry" />
        </mxCell>
        <mxCell id="PRytqWIBed9BBH8wDMKe-28" value="" style="shape=tableRow;horizontal=0;startSize=0;swimlaneHead=0;swimlaneBody=0;fillColor=none;collapsible=0;dropTarget=0;points=[[0,0.5],[1,0.5]];portConstraint=eastwest;top=0;left=0;right=0;bottom=1;" vertex="1" parent="PRytqWIBed9BBH8wDMKe-27">
          <mxGeometry y="30" width="180" height="30" as="geometry" />
        </mxCell>
        <mxCell id="PRytqWIBed9BBH8wDMKe-29" value="PK" style="shape=partialRectangle;connectable=0;fillColor=none;top=0;left=0;bottom=0;right=0;fontStyle=1;overflow=hidden;whiteSpace=wrap;html=1;" vertex="1" parent="PRytqWIBed9BBH8wDMKe-28">
          <mxGeometry width="30" height="30" as="geometry">
            <mxRectangle width="30" height="30" as="alternateBounds" />
          </mxGeometry>
        </mxCell>
        <mxCell id="PRytqWIBed9BBH8wDMKe-30" value="UniqueID" style="shape=partialRectangle;connectable=0;fillColor=none;top=0;left=0;bottom=0;right=0;align=left;spacingLeft=6;fontStyle=5;overflow=hidden;whiteSpace=wrap;html=1;" vertex="1" parent="PRytqWIBed9BBH8wDMKe-28">
          <mxGeometry x="30" width="150" height="30" as="geometry">
            <mxRectangle width="150" height="30" as="alternateBounds" />
          </mxGeometry>
        </mxCell>
        <mxCell id="PRytqWIBed9BBH8wDMKe-31" value="" style="shape=tableRow;horizontal=0;startSize=0;swimlaneHead=0;swimlaneBody=0;fillColor=none;collapsible=0;dropTarget=0;points=[[0,0.5],[1,0.5]];portConstraint=eastwest;top=0;left=0;right=0;bottom=0;" vertex="1" parent="PRytqWIBed9BBH8wDMKe-27">
          <mxGeometry y="60" width="180" height="30" as="geometry" />
        </mxCell>
        <mxCell id="PRytqWIBed9BBH8wDMKe-32" value="" style="shape=partialRectangle;connectable=0;fillColor=none;top=0;left=0;bottom=0;right=0;editable=1;overflow=hidden;whiteSpace=wrap;html=1;" vertex="1" parent="PRytqWIBed9BBH8wDMKe-31">
          <mxGeometry width="30" height="30" as="geometry">
            <mxRectangle width="30" height="30" as="alternateBounds" />
          </mxGeometry>
        </mxCell>
        <mxCell id="PRytqWIBed9BBH8wDMKe-33" value="nome" style="shape=partialRectangle;connectable=0;fillColor=none;top=0;left=0;bottom=0;right=0;align=left;spacingLeft=6;overflow=hidden;whiteSpace=wrap;html=1;" vertex="1" parent="PRytqWIBed9BBH8wDMKe-31">
          <mxGeometry x="30" width="150" height="30" as="geometry">
            <mxRectangle width="150" height="30" as="alternateBounds" />
          </mxGeometry>
        </mxCell>
        <mxCell id="PRytqWIBed9BBH8wDMKe-34" value="" style="shape=tableRow;horizontal=0;startSize=0;swimlaneHead=0;swimlaneBody=0;fillColor=none;collapsible=0;dropTarget=0;points=[[0,0.5],[1,0.5]];portConstraint=eastwest;top=0;left=0;right=0;bottom=0;" vertex="1" parent="PRytqWIBed9BBH8wDMKe-27">
          <mxGeometry y="90" width="180" height="30" as="geometry" />
        </mxCell>
        <mxCell id="PRytqWIBed9BBH8wDMKe-35" value="" style="shape=partialRectangle;connectable=0;fillColor=none;top=0;left=0;bottom=0;right=0;editable=1;overflow=hidden;whiteSpace=wrap;html=1;" vertex="1" parent="PRytqWIBed9BBH8wDMKe-34">
          <mxGeometry width="30" height="30" as="geometry">
            <mxRectangle width="30" height="30" as="alternateBounds" />
          </mxGeometry>
        </mxCell>
        <mxCell id="PRytqWIBed9BBH8wDMKe-36" value="contatto" style="shape=partialRectangle;connectable=0;fillColor=none;top=0;left=0;bottom=0;right=0;align=left;spacingLeft=6;overflow=hidden;whiteSpace=wrap;html=1;" vertex="1" parent="PRytqWIBed9BBH8wDMKe-34">
          <mxGeometry x="30" width="150" height="30" as="geometry">
            <mxRectangle width="150" height="30" as="alternateBounds" />
          </mxGeometry>
        </mxCell>
        <mxCell id="PRytqWIBed9BBH8wDMKe-40" style="edgeStyle=orthogonalEdgeStyle;rounded=0;orthogonalLoop=1;jettySize=auto;html=1;exitX=0;exitY=0.5;exitDx=0;exitDy=0;entryX=-0.004;entryY=0.776;entryDx=0;entryDy=0;entryPerimeter=0;startArrow=ERmany;startFill=0;endArrow=ERone;endFill=0;" edge="1" parent="1" source="PRytqWIBed9BBH8wDMKe-14" target="PRytqWIBed9BBH8wDMKe-28">
          <mxGeometry relative="1" as="geometry" />
        </mxCell>
        <mxCell id="PRytqWIBed9BBH8wDMKe-41" value="Editore" style="swimlane;fontStyle=1;align=center;verticalAlign=top;childLayout=stackLayout;horizontal=1;startSize=26;horizontalStack=0;resizeParent=1;resizeParentMax=0;resizeLast=0;collapsible=1;marginBottom=0;whiteSpace=wrap;html=1;" vertex="1" parent="1">
          <mxGeometry x="560" y="430" width="160" height="190" as="geometry" />
        </mxCell>
        <mxCell id="PRytqWIBed9BBH8wDMKe-42" value="- id: int" style="text;strokeColor=none;fillColor=none;align=left;verticalAlign=top;spacingLeft=4;spacingRight=4;overflow=hidden;rotatable=0;points=[[0,0.5],[1,0.5]];portConstraint=eastwest;whiteSpace=wrap;html=1;" vertex="1" parent="PRytqWIBed9BBH8wDMKe-41">
          <mxGeometry y="26" width="160" height="26" as="geometry" />
        </mxCell>
        <mxCell id="PRytqWIBed9BBH8wDMKe-46" value="- nome: String" style="text;strokeColor=none;fillColor=none;align=left;verticalAlign=top;spacingLeft=4;spacingRight=4;overflow=hidden;rotatable=0;points=[[0,0.5],[1,0.5]];portConstraint=eastwest;whiteSpace=wrap;html=1;" vertex="1" parent="PRytqWIBed9BBH8wDMKe-41">
          <mxGeometry y="52" width="160" height="26" as="geometry" />
        </mxCell>
        <mxCell id="PRytqWIBed9BBH8wDMKe-45" value="- contatto: String" style="text;strokeColor=none;fillColor=none;align=left;verticalAlign=top;spacingLeft=4;spacingRight=4;overflow=hidden;rotatable=0;points=[[0,0.5],[1,0.5]];portConstraint=eastwest;whiteSpace=wrap;html=1;" vertex="1" parent="PRytqWIBed9BBH8wDMKe-41">
          <mxGeometry y="78" width="160" height="26" as="geometry" />
        </mxCell>
        <mxCell id="PRytqWIBed9BBH8wDMKe-43" value="" style="line;strokeWidth=1;fillColor=none;align=left;verticalAlign=middle;spacingTop=-1;spacingLeft=3;spacingRight=3;rotatable=0;labelPosition=right;points=[];portConstraint=eastwest;strokeColor=inherit;" vertex="1" parent="PRytqWIBed9BBH8wDMKe-41">
          <mxGeometry y="104" width="160" height="8" as="geometry" />
        </mxCell>
        <mxCell id="PRytqWIBed9BBH8wDMKe-49" value="+ toString" style="text;strokeColor=none;fillColor=none;align=left;verticalAlign=top;spacingLeft=4;spacingRight=4;overflow=hidden;rotatable=0;points=[[0,0.5],[1,0.5]];portConstraint=eastwest;whiteSpace=wrap;html=1;" vertex="1" parent="PRytqWIBed9BBH8wDMKe-41">
          <mxGeometry y="112" width="160" height="26" as="geometry" />
        </mxCell>
        <mxCell id="PRytqWIBed9BBH8wDMKe-48" value="+ getters, setters" style="text;strokeColor=none;fillColor=none;align=left;verticalAlign=top;spacingLeft=4;spacingRight=4;overflow=hidden;rotatable=0;points=[[0,0.5],[1,0.5]];portConstraint=eastwest;whiteSpace=wrap;html=1;" vertex="1" parent="PRytqWIBed9BBH8wDMKe-41">
          <mxGeometry y="138" width="160" height="26" as="geometry" />
        </mxCell>
        <mxCell id="PRytqWIBed9BBH8wDMKe-47" value="+ costruttore" style="text;strokeColor=none;fillColor=none;align=left;verticalAlign=top;spacingLeft=4;spacingRight=4;overflow=hidden;rotatable=0;points=[[0,0.5],[1,0.5]];portConstraint=eastwest;whiteSpace=wrap;html=1;" vertex="1" parent="PRytqWIBed9BBH8wDMKe-41">
          <mxGeometry y="164" width="160" height="26" as="geometry" />
        </mxCell>
        <mxCell id="PRytqWIBed9BBH8wDMKe-50" style="edgeStyle=orthogonalEdgeStyle;rounded=0;orthogonalLoop=1;jettySize=auto;html=1;exitX=0;exitY=0.5;exitDx=0;exitDy=0;endArrow=diamond;endFill=0;" edge="1" parent="1" source="PRytqWIBed9BBH8wDMKe-21" target="PRytqWIBed9BBH8wDMKe-41">
          <mxGeometry relative="1" as="geometry">
            <Array as="points">
              <mxPoint x="540" y="253" />
              <mxPoint x="540" y="525" />
            </Array>
          </mxGeometry>
        </mxCell>
        <mxCell id="PRytqWIBed9BBH8wDMKe-51" value="DB" style="shape=cylinder3;whiteSpace=wrap;html=1;boundedLbl=1;backgroundOutline=1;size=15;" vertex="1" parent="1">
          <mxGeometry x="230" y="10" width="60" height="80" as="geometry" />
        </mxCell>
        <mxCell id="PRytqWIBed9BBH8wDMKe-52" value="" style="endArrow=none;dashed=1;html=1;dashPattern=1 3;strokeWidth=2;rounded=0;" edge="1" parent="1">
          <mxGeometry width="50" height="50" relative="1" as="geometry">
            <mxPoint x="440" y="600" as="sourcePoint" />
            <mxPoint x="440" y="50" as="targetPoint" />
          </mxGeometry>
        </mxCell>
        <mxCell id="PRytqWIBed9BBH8wDMKe-53" value="" style="dashed=0;outlineConnect=0;html=1;align=center;labelPosition=center;verticalLabelPosition=bottom;verticalAlign=top;shape=mxgraph.weblogos.java" vertex="1" parent="1">
          <mxGeometry x="610" y="17.5" width="34.4" height="65" as="geometry" />
        </mxCell>
        <mxCell id="PRytqWIBed9BBH8wDMKe-54" value="" style="image;aspect=fixed;perimeter=ellipsePerimeter;html=1;align=center;shadow=0;dashed=0;spacingTop=3;image=img/lib/active_directory/generic_server.svg;" vertex="1" parent="1">
          <mxGeometry x="430" y="10" width="28.000000000000004" height="50" as="geometry" />
        </mxCell>
        <mxCell id="PRytqWIBed9BBH8wDMKe-68" value="LibreriaCtrl" style="swimlane;fontStyle=1;align=center;verticalAlign=top;childLayout=stackLayout;horizontal=1;startSize=26;horizontalStack=0;resizeParent=1;resizeParentMax=0;resizeLast=0;collapsible=1;marginBottom=0;whiteSpace=wrap;html=1;" vertex="1" parent="1">
          <mxGeometry x="790" y="110" width="160" height="190" as="geometry" />
        </mxCell>
        <mxCell id="PRytqWIBed9BBH8wDMKe-69" value="- libri: Libro[]" style="text;strokeColor=none;fillColor=none;align=left;verticalAlign=top;spacingLeft=4;spacingRight=4;overflow=hidden;rotatable=0;points=[[0,0.5],[1,0.5]];portConstraint=eastwest;whiteSpace=wrap;html=1;" vertex="1" parent="PRytqWIBed9BBH8wDMKe-68">
          <mxGeometry y="26" width="160" height="26" as="geometry" />
        </mxCell>
        <mxCell id="PRytqWIBed9BBH8wDMKe-70" value="" style="line;strokeWidth=1;fillColor=none;align=left;verticalAlign=middle;spacingTop=-1;spacingLeft=3;spacingRight=3;rotatable=0;labelPosition=right;points=[];portConstraint=eastwest;strokeColor=inherit;" vertex="1" parent="PRytqWIBed9BBH8wDMKe-68">
          <mxGeometry y="52" width="160" height="8" as="geometry" />
        </mxCell>
        <mxCell id="PRytqWIBed9BBH8wDMKe-71" value="+ addLibro(Libro): void" style="text;strokeColor=none;fillColor=none;align=left;verticalAlign=top;spacingLeft=4;spacingRight=4;overflow=hidden;rotatable=0;points=[[0,0.5],[1,0.5]];portConstraint=eastwest;whiteSpace=wrap;html=1;" vertex="1" parent="PRytqWIBed9BBH8wDMKe-68">
          <mxGeometry y="60" width="160" height="26" as="geometry" />
        </mxCell>
        <mxCell id="PRytqWIBed9BBH8wDMKe-73" value="+ updateLibro(Libro): void" style="text;strokeColor=none;fillColor=none;align=left;verticalAlign=top;spacingLeft=4;spacingRight=4;overflow=hidden;rotatable=0;points=[[0,0.5],[1,0.5]];portConstraint=eastwest;whiteSpace=wrap;html=1;" vertex="1" parent="PRytqWIBed9BBH8wDMKe-68">
          <mxGeometry y="86" width="160" height="26" as="geometry" />
        </mxCell>
        <mxCell id="PRytqWIBed9BBH8wDMKe-74" value="+ getLibro(int): Libro" style="text;strokeColor=none;fillColor=none;align=left;verticalAlign=top;spacingLeft=4;spacingRight=4;overflow=hidden;rotatable=0;points=[[0,0.5],[1,0.5]];portConstraint=eastwest;whiteSpace=wrap;html=1;" vertex="1" parent="PRytqWIBed9BBH8wDMKe-68">
          <mxGeometry y="112" width="160" height="26" as="geometry" />
        </mxCell>
        <mxCell id="PRytqWIBed9BBH8wDMKe-75" value="+ getLibri(): Libro[]" style="text;strokeColor=none;fillColor=none;align=left;verticalAlign=top;spacingLeft=4;spacingRight=4;overflow=hidden;rotatable=0;points=[[0,0.5],[1,0.5]];portConstraint=eastwest;whiteSpace=wrap;html=1;" vertex="1" parent="PRytqWIBed9BBH8wDMKe-68">
          <mxGeometry y="138" width="160" height="26" as="geometry" />
        </mxCell>
        <mxCell id="PRytqWIBed9BBH8wDMKe-76" value="+ deleteLibro(int): void" style="text;strokeColor=none;fillColor=none;align=left;verticalAlign=top;spacingLeft=4;spacingRight=4;overflow=hidden;rotatable=0;points=[[0,0.5],[1,0.5]];portConstraint=eastwest;whiteSpace=wrap;html=1;" vertex="1" parent="PRytqWIBed9BBH8wDMKe-68">
          <mxGeometry y="164" width="160" height="26" as="geometry" />
        </mxCell>
        <mxCell id="PRytqWIBed9BBH8wDMKe-72" style="edgeStyle=orthogonalEdgeStyle;rounded=0;orthogonalLoop=1;jettySize=auto;html=1;exitX=0;exitY=0.5;exitDx=0;exitDy=0;entryX=1;entryY=0.5;entryDx=0;entryDy=0;endArrow=none;endFill=0;startFill=0;startArrow=diamond;" edge="1" parent="1" source="PRytqWIBed9BBH8wDMKe-69" target="PRytqWIBed9BBH8wDMKe-18">
          <mxGeometry relative="1" as="geometry" />
        </mxCell>
        <mxCell id="PRytqWIBed9BBH8wDMKe-77" value="LibroView" style="swimlane;fontStyle=1;align=center;verticalAlign=top;childLayout=stackLayout;horizontal=1;startSize=26;horizontalStack=0;resizeParent=1;resizeParentMax=0;resizeLast=0;collapsible=1;marginBottom=0;whiteSpace=wrap;html=1;" vertex="1" parent="1">
          <mxGeometry x="990" y="110" width="160" height="112" as="geometry" />
        </mxCell>
        <mxCell id="PRytqWIBed9BBH8wDMKe-78" value="+ field: type" style="text;strokeColor=none;fillColor=none;align=left;verticalAlign=top;spacingLeft=4;spacingRight=4;overflow=hidden;rotatable=0;points=[[0,0.5],[1,0.5]];portConstraint=eastwest;whiteSpace=wrap;html=1;" vertex="1" parent="PRytqWIBed9BBH8wDMKe-77">
          <mxGeometry y="26" width="160" height="26" as="geometry" />
        </mxCell>
        <mxCell id="PRytqWIBed9BBH8wDMKe-79" value="" style="line;strokeWidth=1;fillColor=none;align=left;verticalAlign=middle;spacingTop=-1;spacingLeft=3;spacingRight=3;rotatable=0;labelPosition=right;points=[];portConstraint=eastwest;strokeColor=inherit;" vertex="1" parent="PRytqWIBed9BBH8wDMKe-77">
          <mxGeometry y="52" width="160" height="8" as="geometry" />
        </mxCell>
        <mxCell id="PRytqWIBed9BBH8wDMKe-80" value="+ mostraLibro(Libro): String" style="text;strokeColor=none;fillColor=none;align=left;verticalAlign=top;spacingLeft=4;spacingRight=4;overflow=hidden;rotatable=0;points=[[0,0.5],[1,0.5]];portConstraint=eastwest;whiteSpace=wrap;html=1;" vertex="1" parent="PRytqWIBed9BBH8wDMKe-77">
          <mxGeometry y="60" width="160" height="26" as="geometry" />
        </mxCell>
        <mxCell id="PRytqWIBed9BBH8wDMKe-81" value="+ mostraLibri(Libro[]): String" style="text;strokeColor=none;fillColor=none;align=left;verticalAlign=top;spacingLeft=4;spacingRight=4;overflow=hidden;rotatable=0;points=[[0,0.5],[1,0.5]];portConstraint=eastwest;whiteSpace=wrap;html=1;" vertex="1" parent="PRytqWIBed9BBH8wDMKe-77">
          <mxGeometry y="86" width="160" height="26" as="geometry" />
        </mxCell>
        <mxCell id="PRytqWIBed9BBH8wDMKe-82" value="LibreriaDemo" style="swimlane;fontStyle=1;align=center;verticalAlign=top;childLayout=stackLayout;horizontal=1;startSize=26;horizontalStack=0;resizeParent=1;resizeParentMax=0;resizeLast=0;collapsible=1;marginBottom=0;whiteSpace=wrap;html=1;" vertex="1" parent="1">
          <mxGeometry x="990" y="352" width="160" height="86" as="geometry" />
        </mxCell>
        <mxCell id="PRytqWIBed9BBH8wDMKe-83" value="+ field: type" style="text;strokeColor=none;fillColor=none;align=left;verticalAlign=top;spacingLeft=4;spacingRight=4;overflow=hidden;rotatable=0;points=[[0,0.5],[1,0.5]];portConstraint=eastwest;whiteSpace=wrap;html=1;" vertex="1" parent="PRytqWIBed9BBH8wDMKe-82">
          <mxGeometry y="26" width="160" height="26" as="geometry" />
        </mxCell>
        <mxCell id="PRytqWIBed9BBH8wDMKe-84" value="" style="line;strokeWidth=1;fillColor=none;align=left;verticalAlign=middle;spacingTop=-1;spacingLeft=3;spacingRight=3;rotatable=0;labelPosition=right;points=[];portConstraint=eastwest;strokeColor=inherit;" vertex="1" parent="PRytqWIBed9BBH8wDMKe-82">
          <mxGeometry y="52" width="160" height="8" as="geometry" />
        </mxCell>
        <mxCell id="PRytqWIBed9BBH8wDMKe-85" value="+ method(type): type" style="text;strokeColor=none;fillColor=none;align=left;verticalAlign=top;spacingLeft=4;spacingRight=4;overflow=hidden;rotatable=0;points=[[0,0.5],[1,0.5]];portConstraint=eastwest;whiteSpace=wrap;html=1;" vertex="1" parent="PRytqWIBed9BBH8wDMKe-82">
          <mxGeometry y="60" width="160" height="26" as="geometry" />
        </mxCell>
        <mxCell id="PRytqWIBed9BBH8wDMKe-86" value="model" style="shape=folder;fontStyle=1;spacingTop=10;tabWidth=40;tabHeight=14;tabPosition=left;html=1;whiteSpace=wrap;" vertex="1" parent="1">
          <mxGeometry x="560" y="60" width="70" height="50" as="geometry" />
        </mxCell>
        <mxCell id="PRytqWIBed9BBH8wDMKe-87" value="controller" style="shape=folder;fontStyle=1;spacingTop=10;tabWidth=40;tabHeight=14;tabPosition=left;html=1;whiteSpace=wrap;" vertex="1" parent="1">
          <mxGeometry x="790" y="60" width="70" height="50" as="geometry" />
        </mxCell>
      </root>
    </mxGraphModel>
  </diagram>
</mxfile>
